<svg width="81" height="81" viewBox="0 0 81 81" fill="none" xmlns="http://www.w3.org/2000/svg">
<path d="M0 26.3721C0 11.8072 11.8072 0 26.3721 0H54.6279C69.1928 0 81 11.8072 81 26.3721V54.6279C81 69.1928 69.1928 81 54.6279 81H26.3721C11.8072 81 0 69.1928 0 54.6279V26.3721Z" fill="#96E9FF"/>
<path fill-rule="evenodd" clip-rule="evenodd" d="M41.4423 11.3022C58.0879 11.3022 71.5818 24.7962 71.5818 41.4418C71.5818 58.0874 58.0879 71.5813 41.4423 71.5813C24.7967 71.5813 11.3027 58.0874 11.3027 41.4418C11.3027 24.7962 24.7967 11.3022 41.4423 11.3022ZM27.9063 18.5215C23.122 18.5217 19.2431 22.4004 19.2431 27.1847V54.9778C19.2432 59.762 23.1221 63.6408 27.9063 63.6409H55.6994C60.4837 63.6409 64.3624 59.762 64.3625 54.9778V27.1847C64.3625 22.4003 60.4837 18.5215 55.6994 18.5215H27.9063Z" fill="#00AEFF"/>
</svg>
