<svg width="62" height="17" viewBox="0 0 62 17" fill="none" xmlns="http://www.w3.org/2000/svg">
<path d="M20.5 13.0015V15.1025H0V13.0015H20.5ZM2.27439 6.56156C5.53308 8.38252 7.93946 9.2294 10.269 9.23941C12.5941 9.24939 14.9983 8.42589 18.2505 6.5666L19.2932 8.39033C15.9109 10.324 13.1242 11.3525 10.2601 11.3402C7.40042 11.3279 4.61912 10.2783 1.24961 8.39537L2.27439 6.56156ZM6.32715 1.89771C7.25521 3.12493 8.03539 3.99056 8.72166 4.54476C9.40433 5.09605 9.91067 5.27202 10.3112 5.27583C10.7041 5.27954 11.1894 5.11923 11.8371 4.58354C12.4933 4.04087 13.237 3.17733 14.1182 1.9264L15.8356 3.13626C14.9152 4.44278 14.0451 5.4836 13.1759 6.20246C12.2983 6.92827 11.3466 7.38664 10.2912 7.37662C9.2433 7.36666 8.2898 6.89635 7.40177 6.17923C6.51735 5.46502 5.61582 4.4401 4.65153 3.16496L6.32715 1.89771Z" fill="#0A0A0A"/>
<path d="M30.6779 14.2004C29.498 14.2004 28.446 13.9443 27.5221 13.4323C26.6093 12.9091 25.8913 12.1967 25.3681 11.295C24.8449 10.3822 24.5833 9.34141 24.5833 8.17258C24.5833 6.9815 24.8449 5.93512 25.3681 5.03346C25.8913 4.12066 26.6093 3.40824 27.5221 2.89618C28.446 2.37299 29.498 2.1114 30.6779 2.1114C31.3569 2.1114 31.9914 2.21715 32.5814 2.42865C33.1825 2.64015 33.7224 2.92958 34.2011 3.29692C34.6797 3.65313 35.0693 4.07057 35.3699 4.54923L33.8003 5.55108C33.5888 5.22826 33.3161 4.93884 32.9822 4.68281C32.6482 4.42678 32.2809 4.23198 31.8801 4.0984C31.4905 3.95369 31.0898 3.88133 30.6779 3.88133C29.8764 3.88133 29.164 4.065 28.5406 4.43235C27.9284 4.79969 27.4442 5.30618 27.088 5.95182C26.7317 6.58632 26.5536 7.32658 26.5536 8.17258C26.5536 8.99632 26.7262 9.73101 27.0713 10.3766C27.4275 11.0223 27.9173 11.5288 28.5406 11.8961C29.1751 12.2635 29.9043 12.4471 30.728 12.4471C31.3736 12.4471 31.9525 12.3136 32.4645 12.0464C32.9766 11.7792 33.3773 11.4063 33.6668 10.9277C33.9673 10.449 34.1176 9.89799 34.1176 9.27462L35.971 9.04085C35.971 10.0984 35.7428 11.0167 35.2864 11.7959C34.8411 12.564 34.2178 13.1596 33.4163 13.5826C32.6259 13.9944 31.7132 14.2004 30.6779 14.2004ZM31.3124 9.42489V7.85533H35.971V9.15773L34.9358 9.42489H31.3124ZM36.9896 14V2.31177H38.8597V14H36.9896ZM40.5516 14V5.65126H42.405V14H40.5516ZM41.4867 4.065C41.1861 4.065 40.9245 3.95925 40.7019 3.74775C40.4904 3.52512 40.3846 3.26353 40.3846 2.96297C40.3846 2.66242 40.4904 2.40639 40.7019 2.19489C40.9245 1.98339 41.1861 1.87764 41.4867 1.87764C41.7872 1.87764 42.0432 1.98339 42.2547 2.19489C42.4774 2.40639 42.5887 2.66242 42.5887 2.96297C42.5887 3.26353 42.4774 3.52512 42.2547 3.74775C42.0432 3.95925 41.7872 4.065 41.4867 4.065ZM50.1359 14L50.0525 12.4471V2.31177H51.9059V14H50.1359ZM47.4143 14.2004C46.6573 14.2004 45.995 14.0223 45.4273 13.6661C44.8707 13.2987 44.431 12.7867 44.1082 12.1299C43.7965 11.4731 43.6406 10.705 43.6406 9.82563C43.6406 8.9351 43.7965 8.16702 44.1082 7.52138C44.431 6.86461 44.8707 6.35812 45.4273 6.00191C45.995 5.63457 46.6573 5.45089 47.4143 5.45089C48.1155 5.45089 48.7167 5.63457 49.2176 6.00191C49.7296 6.35812 50.1192 6.86461 50.3864 7.52138C50.6536 8.16702 50.7871 8.9351 50.7871 9.82563C50.7871 10.705 50.6536 11.4731 50.3864 12.1299C50.1192 12.7867 49.7296 13.2987 49.2176 13.6661C48.7167 14.0223 48.1155 14.2004 47.4143 14.2004ZM47.8818 12.4972C48.3048 12.4972 48.6777 12.3859 49.0005 12.1633C49.3345 11.9295 49.5905 11.6123 49.7686 11.2115C49.9578 10.8108 50.0525 10.3488 50.0525 9.82563C50.0525 9.30244 49.9578 8.84048 49.7686 8.43974C49.5905 8.039 49.3345 7.72732 49.0005 7.50468C48.6777 7.28205 48.2992 7.17073 47.8651 7.17073C47.4198 7.17073 47.0246 7.28205 46.6796 7.50468C46.3345 7.72732 46.0618 8.039 45.8614 8.43974C45.6722 8.84048 45.572 9.30244 45.5608 9.82563C45.572 10.3488 45.6722 10.8108 45.8614 11.2115C46.0618 11.6123 46.3345 11.9295 46.6796 12.1633C47.0358 12.3859 47.4365 12.4972 47.8818 12.4972ZM57.196 14.2004C56.3834 14.2004 55.6598 14.0167 55.0253 13.6494C54.4019 13.2709 53.9066 12.7533 53.5392 12.0965C53.183 11.4397 53.0049 10.6828 53.0049 9.82563C53.0049 8.96849 53.1886 8.21154 53.5559 7.55478C53.9233 6.89801 54.4242 6.38595 55.0587 6.01861C55.7043 5.64013 56.439 5.45089 57.2628 5.45089C58.0086 5.45089 58.682 5.6457 59.2832 6.03531C59.8843 6.41378 60.3574 6.9648 60.7024 7.68836C61.0587 8.41191 61.2368 9.27462 61.2368 10.2765H54.6747L54.9251 10.0427C54.9251 10.5548 55.0364 11 55.2591 11.3785C55.4817 11.7458 55.7767 12.0297 56.144 12.2301C56.5114 12.4304 56.9177 12.5306 57.3629 12.5306C57.875 12.5306 58.298 12.4193 58.632 12.1967C58.9659 11.9629 59.2275 11.6624 59.4167 11.295L61.0698 11.9963C60.836 12.4416 60.5355 12.8312 60.1681 13.1651C59.8119 13.4991 59.3833 13.7551 58.8824 13.9332C58.3926 14.1113 57.8305 14.2004 57.196 14.2004ZM55.042 9.07425L54.7748 8.84048H59.4835L59.2331 9.07425C59.2331 8.61785 59.1329 8.24494 58.9325 7.95551C58.7321 7.65496 58.4761 7.43233 58.1644 7.28762C57.8639 7.13177 57.5466 7.05385 57.2127 7.05385C56.8787 7.05385 56.5448 7.13177 56.2108 7.28762C55.8769 7.43233 55.5986 7.65496 55.3759 7.95551C55.1533 8.24494 55.042 8.61785 55.042 9.07425Z" fill="#0A0A0A"/>
</svg>
