<svg width="64" height="64" viewBox="0 0 64 64" fill="none" xmlns="http://www.w3.org/2000/svg">
<rect width="64" height="64" rx="20" fill="black"/>
<path d="M52 39.2077V43.4095H11V39.2077H52ZM15.5488 26.3277C22.0662 29.9696 26.8789 31.6634 31.5381 31.6834C36.1883 31.7034 40.9966 30.0564 47.5011 26.3378L49.5865 29.9853C42.8219 33.8525 37.2484 35.9096 31.5202 35.885C25.8008 35.8604 20.2382 33.7611 13.4992 29.9953L15.5488 26.3277ZM23.6543 17C25.5104 19.4545 27.0708 21.1857 28.4433 22.2941C29.8087 23.3967 30.8213 23.7486 31.6224 23.7562C32.4082 23.7637 33.3788 23.4431 34.6743 22.3717C35.9866 21.2863 37.474 19.5592 39.2365 17.0574L42.6712 19.4771C40.8303 22.0902 39.0903 24.1718 37.3519 25.6095C35.5966 27.0611 33.6931 27.9779 31.5823 27.9578C29.4866 27.9379 27.5796 26.9973 25.8035 25.563C24.0347 24.1346 22.2316 22.0848 20.3031 19.5345L23.6543 17Z" fill="#F5F5F5"/>
</svg>
